<svg xmlns="http://www.w3.org/2000/svg" viewBox="0 0 64 64" role="img" aria-label="Волшебная живая баня">
  <defs>
    <linearGradient id="bg" x1="10" x2="54" y1="8" y2="58" gradientUnits="userSpaceOnUse">
      <stop stop-color="#244b39"/>
      <stop offset="1" stop-color="#8f4634"/>
    </linearGradient>
    <linearGradient id="fire" x1="30" x2="41" y1="24" y2="45" gradientUnits="userSpaceOnUse">
      <stop stop-color="#f4c16e"/>
      <stop offset="1" stop-color="#c88743"/>
    </linearGradient>
  </defs>
  <rect width="64" height="64" rx="14" fill="url(#bg)"/>
  <path d="M21 18c-3 3-3 7 1 10m10-13c-4 4-4 8 0 12m11-9c-3 3-3 7 1 10" fill="none" stroke="#fbf7ef" stroke-linecap="round" stroke-width="3" opacity=".82"/>
  <path d="M34 25c5 6 10 11 10 18 0 6-5 11-12 11s-12-5-12-11c0-5 3-9 7-13 0 5 3 8 7 8-2-4-1-9 0-13Z" fill="url(#fire)"/>
  <path d="M31 41c-1 3 1 6 4 6 2 0 4-2 4-5 0-3-2-5-5-8 0 3-1 5-3 7Z" fill="#fbf7ef" opacity=".92"/>
  <path d="M11 43c7-1 13 1 18 7-8 2-15 0-18-7Zm42-1c-6 0-11 3-14 9 7 1 13-2 14-9Z" fill="#fbf7ef" opacity=".9"/>
</svg>
